<?xml version="1.0" standalone="no"?>
<!DOCTYPE svg PUBLIC "-//W3C//DTD SVG 20010904//EN"
 "http://www.w3.org/TR/2001/REC-SVG-20010904/DTD/svg10.dtd">
<svg version="1.0" xmlns="http://www.w3.org/2000/svg"
 width="700.000000pt" height="700.000000pt" viewBox="0 0 700.000000 700.000000"
 preserveAspectRatio="xMidYMid meet">
<metadata>
Created by potrace 1.11, written by Peter Selinger 2001-2013
</metadata>
<g transform="translate(0.000000,700.000000) scale(0.100000,-0.100000)"
fill="#000000" stroke="none">
<path d="M4160 6958 c-41 -16 -99 -41 -128 -54 -29 -13 -55 -24 -58 -24 -13 0
-316 -146 -419 -203 -194 -105 -407 -245 -560 -365 -5 -4 -30 -23 -55 -42
-101 -79 -277 -246 -386 -369 -293 -326 -500 -715 -595 -1120 -26 -108 -26
-107 -33 -161 -3 -25 -8 -54 -10 -65 -26 -132 -26 -498 -1 -626 3 -13 8 -42
11 -64 l6 -40 -24 25 c-42 43 -128 177 -178 275 -92 182 -146 406 -146 601 1
57 -2 104 -6 104 -5 0 -8 -3 -8 -7 0 -5 -12 -21 -26 -38 -91 -105 -321 -489
-390 -650 -86 -202 -164 -412 -179 -485 -2 -8 -15 -60 -28 -115 -14 -55 -29
-120 -32 -145 -4 -24 -8 -47 -10 -50 -2 -3 -7 -33 -10 -65 -4 -33 -9 -69 -11
-80 -15 -73 -22 -465 -10 -555 1 -14 6 -52 10 -85 4 -33 10 -71 12 -85 2 -14
7 -43 10 -65 9 -63 63 -283 91 -365 66 -196 153 -380 259 -548 19 -29 34 -56
34 -61 0 -5 3 -11 8 -13 4 -1 34 -43 67 -92 169 -253 519 -668 649 -771 246
-194 551 -350 866 -441 81 -24 344 -83 440 -100 97 -16 716 -9 817 10 10 2 43
7 74 10 31 4 65 8 75 10 11 2 39 7 64 11 83 13 231 70 405 157 111 55 133 68
255 146 183 118 390 297 489 423 11 14 33 39 49 57 36 39 168 237 215 322 87
161 190 430 233 610 2 8 10 44 19 79 20 82 43 195 50 246 3 22 8 51 10 65 3
14 7 43 10 65 3 22 8 51 10 65 4 23 13 112 20 200 23 264 23 703 1 830 -3 14
-7 53 -10 86 -4 34 -11 86 -16 115 -6 30 -13 66 -15 81 -44 246 -150 522 -286
740 -64 104 -173 252 -177 240 -1 -4 4 -44 11 -88 18 -99 14 -328 -7 -442 -25
-133 -74 -306 -122 -430 -43 -110 -160 -353 -239 -497 -22 -38 -47 -86 -57
-105 -9 -19 -18 -30 -18 -25 -1 6 -3 37 -6 70 -2 33 -6 71 -8 85 -3 14 -9 50
-15 80 -44 254 -158 543 -351 890 -56 102 -208 362 -245 420 -74 117 -250 427
-315 555 -61 120 -162 351 -165 375 -1 3 -11 34 -22 70 -62 185 -97 404 -96
590 1 128 12 219 43 360 27 128 109 302 197 418 34 45 56 82 50 81 -7 0 -46
-14 -87 -31z"/>
</g>
</svg>
