<?xml version="1.0" standalone="no"?>
<!DOCTYPE svg PUBLIC "-//W3C//DTD SVG 20010904//EN"
 "http://www.w3.org/TR/2001/REC-SVG-20010904/DTD/svg10.dtd">
<svg version="1.0" xmlns="http://www.w3.org/2000/svg"
 width="700.000000pt" height="700.000000pt" viewBox="0 0 700.000000 700.000000"
 preserveAspectRatio="xMidYMid meet">
<metadata>
Created by potrace 1.11, written by Peter Selinger 2001-2013
</metadata>
<g transform="translate(0.000000,700.000000) scale(0.100000,-0.100000)"
fill="#000000" stroke="none">
<path d="M6107 6564 c-1 -1 -34 -5 -73 -8 -41 -4 -159 -33 -275 -67 -271 -81
-371 -110 -514 -153 -66 -19 -286 -85 -490 -146 -203 -61 -377 -113 -385 -115
-8 -2 -152 -44 -320 -94 -168 -51 -343 -103 -390 -117 -47 -14 -101 -31 -120
-37 -19 -6 -37 -12 -40 -12 -34 -7 -77 -19 -90 -25 -8 -5 -35 -13 -60 -20 -25
-6 -79 -22 -120 -34 -41 -13 -109 -34 -150 -46 -41 -12 -94 -28 -117 -36 -23
-7 -52 -16 -65 -18 -13 -3 -89 -25 -169 -49 l-147 -44 -603 -1 c-695 -1 -708
-2 -888 -48 -251 -65 -460 -185 -646 -369 -169 -167 -244 -277 -346 -510 -20
-47 -49 -147 -70 -245 -18 -85 -23 -137 -23 -270 -1 -186 4 -232 40 -372 131
-520 533 -923 1054 -1057 l65 -17 1 -845 c1 -464 4 -860 7 -881 31 -181 153
-345 317 -425 47 -23 114 -47 150 -54 66 -12 729 -16 780 -5 14 3 39 8 55 11
35 7 49 13 130 51 88 43 201 159 247 254 64 133 61 100 63 962 1 433 4 790 7
794 5 5 333 -86 418 -116 14 -5 133 -41 265 -80 132 -39 283 -84 335 -100 185
-56 269 -81 605 -181 187 -55 354 -105 370 -110 17 -6 38 -12 48 -14 16 -4
170 -49 252 -75 303 -94 749 -221 799 -228 270 -36 539 59 736 259 80 81 150
190 193 299 58 149 56 72 56 1920 -1 1600 -2 1699 -19 1775 -23 103 -31 128
-67 200 -114 233 -312 399 -556 465 -59 16 -242 41 -250 34z m134 -611 c66
-29 116 -78 147 -142 l27 -56 0 -1665 c0 -1614 -1 -1667 -19 -1714 -24 -63
-87 -131 -145 -159 -34 -15 -66 -21 -121 -21 -65 -1 -106 8 -315 72 -287 88
-628 190 -670 202 -16 4 -340 101 -720 215 -379 114 -703 210 -720 215 -16 4
-160 47 -320 95 -159 47 -328 98 -375 111 -46 14 -87 29 -90 34 -3 4 -5 432
-4 951 l0 942 115 34 c63 19 128 38 144 43 17 5 100 29 185 55 85 25 191 57
235 70 395 118 395 118 680 203 55 17 269 81 475 142 206 61 395 118 420 126
25 7 198 59 385 114 187 55 381 113 430 129 107 34 186 35 256 4z m-3909
-1011 c2 -9 3 -402 2 -872 l0 -855 -515 0 -514 0 -90 28 c-461 143 -718 597
-601 1058 83 327 344 573 676 639 72 15 157 17 562 18 438 0 476 -1 480 -16z
m-1 -2337 c3 -65 3 -1535 0 -1557 l-3 -27 -289 -1 -289 0 0 803 0 803 290 0
c284 -1 290 -1 291 -21z"/>
</g>
</svg>
